# xmcd
#
# Track frame offsets: 
#        150
#        13487
#        34824
#        52699
#        66225
#        82624
#        106612
#        129104
#        143488
#        165638
#        193444
#        215853
#        230492
#        254002
#        281098
#        302081
#        310472
#        330261
#
# Disc length: 4638 seconds
#
# Revision: 1
# Processed by: cddbd v1.5.2PL0 Copyright (c) Steve Scherf et al.
# Submitted via: ExactAudioCopy v0.99pb5
#
DISCID=fc121c12
DTITLE=Various Artist - Last Of The Great Mississippi Delta Bluesmen - Live I
DTITLE=n Dallas
DYEAR=2007
DGENRE=Blues
TTITLE0=King Biscuit Time
TTITLE1=Chicken Shack
TTITLE2=It's Got To End Somewhere
TTITLE3=Catfish Blues
TTITLE4=Down In Mississippi
TTITLE5=Hangin' On
TTITLE6=All My Money's Gone
TTITLE7=Sweet Home Chicago
TTITLE8=Kansas City
TTITLE9=If I Asked You
TTITLE10=Got To Find Me A Woman
TTITLE11=Country Boy
TTITLE12=Got My Mojo Working
TTITLE13=If You Don't Want Me
TTITLE14=For You My Love
TTITLE15=Apron Strings
TTITLE16=Blind Girl Blues
TTITLE17=See See Rider Blues
EXTD=YEAR: 2006
EXTT0=
EXTT1=
EXTT2=
EXTT3=
EXTT4=
EXTT5=
EXTT6=
EXTT7=
EXTT8=
EXTT9=
EXTT10=
EXTT11=
EXTT12=
EXTT13=
EXTT14=
EXTT15=
EXTT16=
EXTT17=
PLAYORDER=
